<mxfile host="app.diagrams.net" modified="2024-02-26T20:39:32.223Z" agent="Mozilla/5.0 (Macintosh; Intel Mac OS X 10_15_7) AppleWebKit/537.36 (KHTML, like Gecko) Chrome/120.0.0.0 Safari/537.36" etag="byT-DGR5Z0GGoArxqy-V" version="23.1.6" type="device">
  <diagram name="Page-1" id="74e2e168-ea6b-b213-b513-2b3c1d86103e">
    <mxGraphModel dx="4730" dy="2575" grid="1" gridSize="10" guides="1" tooltips="1" connect="1" arrows="1" fold="1" page="1" pageScale="1" pageWidth="1100" pageHeight="850" background="none" math="0" shadow="0">
      <root>
        <mxCell id="0" />
        <mxCell id="1" parent="0" />
        <mxCell id="BAR1KQf7lfsyzlYT7yKX-64" value="" style="edgeStyle=orthogonalEdgeStyle;rounded=0;orthogonalLoop=1;jettySize=auto;html=1;" edge="1" parent="1" source="BAR1KQf7lfsyzlYT7yKX-1" target="BAR1KQf7lfsyzlYT7yKX-62">
          <mxGeometry relative="1" as="geometry" />
        </mxCell>
        <mxCell id="BAR1KQf7lfsyzlYT7yKX-1" value="Начало" style="ellipse;whiteSpace=wrap;html=1;" vertex="1" parent="1">
          <mxGeometry x="242.5" width="145" height="30" as="geometry" />
        </mxCell>
        <mxCell id="BAR1KQf7lfsyzlYT7yKX-3" value="Левая граница массива &amp;lt; правой" style="rhombus;whiteSpace=wrap;html=1;" vertex="1" parent="1">
          <mxGeometry x="175" y="190" width="280" height="70" as="geometry" />
        </mxCell>
        <mxCell id="BAR1KQf7lfsyzlYT7yKX-51" style="edgeStyle=orthogonalEdgeStyle;rounded=0;orthogonalLoop=1;jettySize=auto;html=1;exitX=1;exitY=0.5;exitDx=0;exitDy=0;entryX=1;entryY=0.5;entryDx=0;entryDy=0;" edge="1" parent="1" source="BAR1KQf7lfsyzlYT7yKX-6" target="BAR1KQf7lfsyzlYT7yKX-36">
          <mxGeometry relative="1" as="geometry">
            <mxPoint x="560" y="810" as="targetPoint" />
            <Array as="points">
              <mxPoint x="560" y="425" />
              <mxPoint x="560" y="830" />
            </Array>
          </mxGeometry>
        </mxCell>
        <mxCell id="BAR1KQf7lfsyzlYT7yKX-6" value="i &amp;lt; rightBorder (правой границы)" style="rhombus;whiteSpace=wrap;html=1;" vertex="1" parent="1">
          <mxGeometry x="165" y="390" width="300" height="70" as="geometry" />
        </mxCell>
        <mxCell id="BAR1KQf7lfsyzlYT7yKX-7" value="Текущий элемент массива &amp;gt; следующего&lt;br&gt;arr[ i ]&amp;nbsp; &amp;gt;&amp;nbsp; arr[ i + 1 ]" style="rhombus;whiteSpace=wrap;html=1;" vertex="1" parent="1">
          <mxGeometry x="165" y="500" width="300" height="80" as="geometry" />
        </mxCell>
        <mxCell id="BAR1KQf7lfsyzlYT7yKX-8" value="Меняем местами элементы ( arr[ i ] и&amp;nbsp; arr[ i + 1] )&lt;br&gt;Индекс последнего обмена i запоминаем в last&lt;br&gt;( last = i )&amp;nbsp;" style="rounded=0;whiteSpace=wrap;html=1;" vertex="1" parent="1">
          <mxGeometry x="165" y="610" width="300" height="60" as="geometry" />
        </mxCell>
        <mxCell id="BAR1KQf7lfsyzlYT7yKX-42" value="" style="edgeStyle=orthogonalEdgeStyle;rounded=0;orthogonalLoop=1;jettySize=auto;html=1;" edge="1" parent="1" source="BAR1KQf7lfsyzlYT7yKX-11" target="BAR1KQf7lfsyzlYT7yKX-40">
          <mxGeometry relative="1" as="geometry" />
        </mxCell>
        <mxCell id="BAR1KQf7lfsyzlYT7yKX-49" style="edgeStyle=orthogonalEdgeStyle;rounded=0;orthogonalLoop=1;jettySize=auto;html=1;entryX=1;entryY=0.5;entryDx=0;entryDy=0;" edge="1" parent="1" source="BAR1KQf7lfsyzlYT7yKX-11" target="BAR1KQf7lfsyzlYT7yKX-16">
          <mxGeometry relative="1" as="geometry">
            <mxPoint x="580" y="1510" as="targetPoint" />
            <Array as="points">
              <mxPoint x="570" y="1050" />
              <mxPoint x="570" y="1470" />
            </Array>
          </mxGeometry>
        </mxCell>
        <mxCell id="BAR1KQf7lfsyzlYT7yKX-11" value="i &amp;gt;= leftBorder (левой границы)" style="rhombus;whiteSpace=wrap;html=1;" vertex="1" parent="1">
          <mxGeometry x="160" y="1010" width="310" height="80" as="geometry" />
        </mxCell>
        <mxCell id="BAR1KQf7lfsyzlYT7yKX-15" value="Уменьшаем индекс i на 1&lt;br&gt;i = i - 1" style="rounded=0;whiteSpace=wrap;html=1;" vertex="1" parent="1">
          <mxGeometry x="165" y="1350" width="300" height="60" as="geometry" />
        </mxCell>
        <mxCell id="BAR1KQf7lfsyzlYT7yKX-52" style="edgeStyle=orthogonalEdgeStyle;rounded=0;orthogonalLoop=1;jettySize=auto;html=1;entryX=0;entryY=0.5;entryDx=0;entryDy=0;" edge="1" parent="1" target="BAR1KQf7lfsyzlYT7yKX-3">
          <mxGeometry relative="1" as="geometry">
            <mxPoint x="50" y="230" as="targetPoint" />
            <mxPoint x="160" y="1470" as="sourcePoint" />
            <Array as="points">
              <mxPoint x="51" y="1470" />
              <mxPoint x="51" y="225" />
            </Array>
          </mxGeometry>
        </mxCell>
        <mxCell id="BAR1KQf7lfsyzlYT7yKX-16" value="Левой&amp;nbsp; границе присваиваем значение leftBorder =&amp;nbsp; last +1 ( индекс последнего обмена с отсортир-ным элементом)" style="rounded=0;whiteSpace=wrap;html=1;" vertex="1" parent="1">
          <mxGeometry x="165" y="1440" width="300" height="60" as="geometry" />
        </mxCell>
        <mxCell id="BAR1KQf7lfsyzlYT7yKX-55" value="" style="edgeStyle=orthogonalEdgeStyle;rounded=0;orthogonalLoop=1;jettySize=auto;html=1;" edge="1" parent="1" source="BAR1KQf7lfsyzlYT7yKX-17" target="BAR1KQf7lfsyzlYT7yKX-18">
          <mxGeometry relative="1" as="geometry" />
        </mxCell>
        <mxCell id="BAR1KQf7lfsyzlYT7yKX-17" value="Выводим отсортированный массив" style="shape=parallelogram;perimeter=parallelogramPerimeter;whiteSpace=wrap;html=1;fixedSize=1;" vertex="1" parent="1">
          <mxGeometry x="190" y="1580" width="250" height="60" as="geometry" />
        </mxCell>
        <mxCell id="BAR1KQf7lfsyzlYT7yKX-18" value="Конец" style="ellipse;whiteSpace=wrap;html=1;" vertex="1" parent="1">
          <mxGeometry x="210" y="1680" width="210" height="30" as="geometry" />
        </mxCell>
        <mxCell id="BAR1KQf7lfsyzlYT7yKX-20" value="" style="endArrow=classic;html=1;rounded=0;entryX=0.5;entryY=0;entryDx=0;entryDy=0;" edge="1" parent="1">
          <mxGeometry width="50" height="50" relative="1" as="geometry">
            <mxPoint x="315" y="160" as="sourcePoint" />
            <mxPoint x="314.71" y="190" as="targetPoint" />
          </mxGeometry>
        </mxCell>
        <mxCell id="BAR1KQf7lfsyzlYT7yKX-21" value="" style="endArrow=classic;html=1;rounded=0;" edge="1" parent="1">
          <mxGeometry width="50" height="50" relative="1" as="geometry">
            <mxPoint x="315" y="260" as="sourcePoint" />
            <mxPoint x="315" y="280" as="targetPoint" />
          </mxGeometry>
        </mxCell>
        <mxCell id="BAR1KQf7lfsyzlYT7yKX-22" value="" style="endArrow=classic;html=1;rounded=0;exitX=1;exitY=0.5;exitDx=0;exitDy=0;entryX=1;entryY=0.5;entryDx=0;entryDy=0;" edge="1" parent="1" source="BAR1KQf7lfsyzlYT7yKX-3" target="BAR1KQf7lfsyzlYT7yKX-17">
          <mxGeometry width="50" height="50" relative="1" as="geometry">
            <mxPoint x="345" y="60" as="sourcePoint" />
            <mxPoint x="600" y="1540" as="targetPoint" />
            <Array as="points">
              <mxPoint x="600" y="225" />
              <mxPoint x="600" y="890" />
              <mxPoint x="600" y="1260" />
              <mxPoint x="600" y="1610" />
            </Array>
          </mxGeometry>
        </mxCell>
        <mxCell id="BAR1KQf7lfsyzlYT7yKX-23" value="Нет" style="text;html=1;align=center;verticalAlign=middle;resizable=0;points=[];autosize=1;strokeColor=none;fillColor=none;" vertex="1" parent="1">
          <mxGeometry x="475" y="198" width="40" height="30" as="geometry" />
        </mxCell>
        <mxCell id="BAR1KQf7lfsyzlYT7yKX-25" value="" style="endArrow=classic;html=1;rounded=0;entryX=0.5;entryY=0;entryDx=0;entryDy=0;" edge="1" parent="1">
          <mxGeometry width="50" height="50" relative="1" as="geometry">
            <mxPoint x="314.71" y="350" as="sourcePoint" />
            <mxPoint x="314.71" y="390" as="targetPoint" />
          </mxGeometry>
        </mxCell>
        <mxCell id="BAR1KQf7lfsyzlYT7yKX-26" value="" style="endArrow=classic;html=1;rounded=0;entryX=0.5;entryY=0;entryDx=0;entryDy=0;" edge="1" parent="1">
          <mxGeometry width="50" height="50" relative="1" as="geometry">
            <mxPoint x="314.71" y="460" as="sourcePoint" />
            <mxPoint x="314.71" y="500" as="targetPoint" />
          </mxGeometry>
        </mxCell>
        <mxCell id="BAR1KQf7lfsyzlYT7yKX-27" value="" style="endArrow=classic;html=1;rounded=0;exitX=1;exitY=0.5;exitDx=0;exitDy=0;entryX=1;entryY=0.5;entryDx=0;entryDy=0;" edge="1" parent="1" source="BAR1KQf7lfsyzlYT7yKX-7" target="BAR1KQf7lfsyzlYT7yKX-32">
          <mxGeometry width="50" height="50" relative="1" as="geometry">
            <mxPoint x="250" y="620" as="sourcePoint" />
            <mxPoint x="480" y="730" as="targetPoint" />
            <Array as="points">
              <mxPoint x="520" y="540" />
              <mxPoint x="520" y="730" />
            </Array>
          </mxGeometry>
        </mxCell>
        <mxCell id="BAR1KQf7lfsyzlYT7yKX-29" value="" style="endArrow=classic;html=1;rounded=0;entryX=0.5;entryY=0;entryDx=0;entryDy=0;" edge="1" parent="1">
          <mxGeometry width="50" height="50" relative="1" as="geometry">
            <mxPoint x="315" y="580" as="sourcePoint" />
            <mxPoint x="314.71999999999997" y="610" as="targetPoint" />
          </mxGeometry>
        </mxCell>
        <mxCell id="BAR1KQf7lfsyzlYT7yKX-30" value="" style="endArrow=classic;html=1;rounded=0;entryX=0.5;entryY=0;entryDx=0;entryDy=0;" edge="1" parent="1">
          <mxGeometry width="50" height="50" relative="1" as="geometry">
            <mxPoint x="314.96" y="670" as="sourcePoint" />
            <mxPoint x="314.67999999999995" y="700" as="targetPoint" />
          </mxGeometry>
        </mxCell>
        <mxCell id="BAR1KQf7lfsyzlYT7yKX-33" style="edgeStyle=orthogonalEdgeStyle;rounded=0;orthogonalLoop=1;jettySize=auto;html=1;entryX=0;entryY=0.5;entryDx=0;entryDy=0;" edge="1" parent="1" source="BAR1KQf7lfsyzlYT7yKX-32" target="BAR1KQf7lfsyzlYT7yKX-6">
          <mxGeometry relative="1" as="geometry">
            <mxPoint x="160" y="540" as="targetPoint" />
            <Array as="points">
              <mxPoint x="100" y="730" />
              <mxPoint x="100" y="425" />
            </Array>
          </mxGeometry>
        </mxCell>
        <mxCell id="BAR1KQf7lfsyzlYT7yKX-32" value="Увеличиваем индекс i на 1&lt;br style=&quot;border-color: var(--border-color);&quot;&gt;&lt;span style=&quot;border-color: var(--border-color);&quot;&gt;i = i + 1&lt;/span&gt;" style="rounded=0;whiteSpace=wrap;html=1;" vertex="1" parent="1">
          <mxGeometry x="165" y="700" width="300" height="60" as="geometry" />
        </mxCell>
        <mxCell id="BAR1KQf7lfsyzlYT7yKX-35" value="&lt;span style=&quot;color: rgb(0, 0, 0); font-family: Helvetica; font-size: 12px; font-style: normal; font-variant-ligatures: normal; font-variant-caps: normal; font-weight: 400; letter-spacing: normal; orphans: 2; text-align: center; text-indent: 0px; text-transform: none; widows: 2; word-spacing: 0px; -webkit-text-stroke-width: 0px; background-color: rgb(251, 251, 251); text-decoration-thickness: initial; text-decoration-style: initial; text-decoration-color: initial; float: none; display: inline !important;&quot;&gt;Нет&lt;/span&gt;" style="text;whiteSpace=wrap;html=1;" vertex="1" parent="1">
          <mxGeometry x="470" y="510" width="50" height="40" as="geometry" />
        </mxCell>
        <mxCell id="BAR1KQf7lfsyzlYT7yKX-39" value="" style="edgeStyle=orthogonalEdgeStyle;rounded=0;orthogonalLoop=1;jettySize=auto;html=1;" edge="1" parent="1" source="BAR1KQf7lfsyzlYT7yKX-36" target="BAR1KQf7lfsyzlYT7yKX-38">
          <mxGeometry relative="1" as="geometry" />
        </mxCell>
        <mxCell id="BAR1KQf7lfsyzlYT7yKX-36" value="Правой границе присваиваем индекс последнего обмена (rightBorder = last )&lt;br style=&quot;border-color: var(--border-color);&quot;&gt;Указателю last присваиваем значение больше количества элементов в массиве (last = n +1)" style="rounded=0;whiteSpace=wrap;html=1;" vertex="1" parent="1">
          <mxGeometry x="165" y="800" width="300" height="60" as="geometry" />
        </mxCell>
        <mxCell id="BAR1KQf7lfsyzlYT7yKX-41" value="" style="edgeStyle=orthogonalEdgeStyle;rounded=0;orthogonalLoop=1;jettySize=auto;html=1;" edge="1" parent="1" source="BAR1KQf7lfsyzlYT7yKX-38" target="BAR1KQf7lfsyzlYT7yKX-11">
          <mxGeometry relative="1" as="geometry" />
        </mxCell>
        <mxCell id="BAR1KQf7lfsyzlYT7yKX-38" value="Устанавливаем индекс i =&amp;nbsp; rightBorder - 1(значению правой границы массива -1 (отсорт-ый элемент))" style="rounded=0;whiteSpace=wrap;html=1;" vertex="1" parent="1">
          <mxGeometry x="165" y="900" width="300" height="60" as="geometry" />
        </mxCell>
        <mxCell id="BAR1KQf7lfsyzlYT7yKX-44" value="" style="edgeStyle=orthogonalEdgeStyle;rounded=0;orthogonalLoop=1;jettySize=auto;html=1;" edge="1" parent="1" source="BAR1KQf7lfsyzlYT7yKX-40" target="BAR1KQf7lfsyzlYT7yKX-43">
          <mxGeometry relative="1" as="geometry" />
        </mxCell>
        <mxCell id="BAR1KQf7lfsyzlYT7yKX-40" value="Текущий элемент массива &amp;gt; следующего&lt;br&gt;arr[ i ]&amp;nbsp; &amp;gt;&amp;nbsp; arr[ i + 1 ]" style="rhombus;whiteSpace=wrap;html=1;" vertex="1" parent="1">
          <mxGeometry x="165" y="1130" width="300" height="80" as="geometry" />
        </mxCell>
        <mxCell id="BAR1KQf7lfsyzlYT7yKX-45" value="" style="edgeStyle=orthogonalEdgeStyle;rounded=0;orthogonalLoop=1;jettySize=auto;html=1;" edge="1" parent="1" source="BAR1KQf7lfsyzlYT7yKX-43" target="BAR1KQf7lfsyzlYT7yKX-15">
          <mxGeometry relative="1" as="geometry" />
        </mxCell>
        <mxCell id="BAR1KQf7lfsyzlYT7yKX-43" value="Меняем местами элементы ( arr[ i ] и&amp;nbsp; arr[ i + 1] )&lt;br&gt;Индекс последнего обмена i запоминаем в last&lt;br&gt;( last = i )&amp;nbsp;" style="rounded=0;whiteSpace=wrap;html=1;" vertex="1" parent="1">
          <mxGeometry x="165" y="1250" width="300" height="60" as="geometry" />
        </mxCell>
        <mxCell id="BAR1KQf7lfsyzlYT7yKX-47" value="]" style="endArrow=classic;html=1;rounded=0;exitX=1;exitY=0.5;exitDx=0;exitDy=0;entryX=1;entryY=0.5;entryDx=0;entryDy=0;" edge="1" parent="1" target="BAR1KQf7lfsyzlYT7yKX-15">
          <mxGeometry width="50" height="50" relative="1" as="geometry">
            <mxPoint x="465" y="1170" as="sourcePoint" />
            <mxPoint x="465" y="1360" as="targetPoint" />
            <Array as="points">
              <mxPoint x="520" y="1170" />
              <mxPoint x="520" y="1380" />
            </Array>
          </mxGeometry>
        </mxCell>
        <mxCell id="BAR1KQf7lfsyzlYT7yKX-48" style="edgeStyle=orthogonalEdgeStyle;rounded=0;orthogonalLoop=1;jettySize=auto;html=1;entryX=0;entryY=0.5;entryDx=0;entryDy=0;" edge="1" parent="1">
          <mxGeometry relative="1" as="geometry">
            <mxPoint x="165.00000000000003" y="1050" as="targetPoint" />
            <mxPoint x="165.00000000000003" y="1355" as="sourcePoint" />
            <Array as="points">
              <mxPoint x="165" y="1380" />
              <mxPoint x="100" y="1380" />
              <mxPoint x="100" y="1050" />
            </Array>
          </mxGeometry>
        </mxCell>
        <mxCell id="BAR1KQf7lfsyzlYT7yKX-57" value="&lt;span style=&quot;color: rgb(0, 0, 0); font-family: Helvetica; font-size: 12px; font-style: normal; font-variant-ligatures: normal; font-variant-caps: normal; font-weight: 400; letter-spacing: normal; orphans: 2; text-align: center; text-indent: 0px; text-transform: none; widows: 2; word-spacing: 0px; -webkit-text-stroke-width: 0px; background-color: rgb(251, 251, 251); text-decoration-thickness: initial; text-decoration-style: initial; text-decoration-color: initial; float: none; display: inline !important;&quot;&gt;Нет&lt;/span&gt;" style="text;whiteSpace=wrap;html=1;" vertex="1" parent="1">
          <mxGeometry x="470" y="1020" width="50" height="40" as="geometry" />
        </mxCell>
        <mxCell id="BAR1KQf7lfsyzlYT7yKX-58" value="&lt;span style=&quot;color: rgb(0, 0, 0); font-family: Helvetica; font-size: 12px; font-style: normal; font-variant-ligatures: normal; font-variant-caps: normal; font-weight: 400; letter-spacing: normal; orphans: 2; text-align: center; text-indent: 0px; text-transform: none; widows: 2; word-spacing: 0px; -webkit-text-stroke-width: 0px; background-color: rgb(251, 251, 251); text-decoration-thickness: initial; text-decoration-style: initial; text-decoration-color: initial; float: none; display: inline !important;&quot;&gt;Нет&lt;/span&gt;" style="text;whiteSpace=wrap;html=1;" vertex="1" parent="1">
          <mxGeometry x="470" y="1140" width="50" height="40" as="geometry" />
        </mxCell>
        <mxCell id="BAR1KQf7lfsyzlYT7yKX-59" value="Да" style="text;html=1;align=center;verticalAlign=middle;resizable=0;points=[];autosize=1;strokeColor=none;fillColor=none;" vertex="1" parent="1">
          <mxGeometry x="310" y="1098" width="40" height="30" as="geometry" />
        </mxCell>
        <mxCell id="BAR1KQf7lfsyzlYT7yKX-60" value="Да" style="text;html=1;align=center;verticalAlign=middle;resizable=0;points=[];autosize=1;strokeColor=none;fillColor=none;" vertex="1" parent="1">
          <mxGeometry x="320" y="580" width="40" height="30" as="geometry" />
        </mxCell>
        <mxCell id="BAR1KQf7lfsyzlYT7yKX-61" value="&lt;span style=&quot;color: rgb(0, 0, 0); font-family: Helvetica; font-size: 12px; font-style: normal; font-variant-ligatures: normal; font-variant-caps: normal; font-weight: 400; letter-spacing: normal; orphans: 2; text-align: center; text-indent: 0px; text-transform: none; widows: 2; word-spacing: 0px; -webkit-text-stroke-width: 0px; background-color: rgb(251, 251, 251); text-decoration-thickness: initial; text-decoration-style: initial; text-decoration-color: initial; float: none; display: inline !important;&quot;&gt;Нет&lt;/span&gt;" style="text;whiteSpace=wrap;html=1;" vertex="1" parent="1">
          <mxGeometry x="465" y="400" width="50" height="40" as="geometry" />
        </mxCell>
        <mxCell id="BAR1KQf7lfsyzlYT7yKX-62" value="&lt;div style=&quot;border-color: var(--border-color);&quot;&gt;&lt;br class=&quot;Apple-interchange-newline&quot;&gt;Левая граница массива ( leftBorder ) = 0 (1-ый элемент в массиве)&amp;nbsp;&lt;/div&gt;&lt;div style=&quot;border-color: var(--border-color);&quot;&gt;&lt;span style=&quot;border-color: var(--border-color); background-color: initial;&quot;&gt;Правая граница ( rightBorder ) = индексу последнего элемента в массиве( N -1 )&lt;/span&gt;&lt;/div&gt;&lt;div style=&quot;border-color: var(--border-color);&quot;&gt;Указатель на индекс последнего обмена ( last ) = -1&lt;/div&gt;&lt;div&gt;&lt;br&gt;&lt;/div&gt;" style="rounded=0;whiteSpace=wrap;html=1;" vertex="1" parent="1">
          <mxGeometry x="165" y="50" width="300" height="110" as="geometry" />
        </mxCell>
        <mxCell id="BAR1KQf7lfsyzlYT7yKX-63" value="Сбрасываем индекс элемента последнего обмена ( last ) =&amp;nbsp; -1&lt;br style=&quot;border-color: var(--border-color);&quot;&gt;Устанавливаем индекс i =&amp;nbsp; leftBorder (значению левой границы массива )" style="rounded=0;whiteSpace=wrap;html=1;" vertex="1" parent="1">
          <mxGeometry x="165" y="280" width="300" height="70" as="geometry" />
        </mxCell>
        <mxCell id="BAR1KQf7lfsyzlYT7yKX-65" value="Да" style="text;html=1;align=center;verticalAlign=middle;resizable=0;points=[];autosize=1;strokeColor=none;fillColor=none;" vertex="1" parent="1">
          <mxGeometry x="320" y="1210" width="40" height="30" as="geometry" />
        </mxCell>
        <mxCell id="BAR1KQf7lfsyzlYT7yKX-66" value="Да" style="text;html=1;align=center;verticalAlign=middle;resizable=0;points=[];autosize=1;strokeColor=none;fillColor=none;" vertex="1" parent="1">
          <mxGeometry x="330" y="470" width="40" height="30" as="geometry" />
        </mxCell>
        <mxCell id="BAR1KQf7lfsyzlYT7yKX-67" value="Да" style="text;html=1;align=center;verticalAlign=middle;resizable=0;points=[];autosize=1;strokeColor=none;fillColor=none;" vertex="1" parent="1">
          <mxGeometry x="330" y="250" width="40" height="30" as="geometry" />
        </mxCell>
      </root>
    </mxGraphModel>
  </diagram>
</mxfile>
